<?xml version="1.0" encoding="UTF-8" standalone="no"?>
<svg
   xmlns:dc="http://purl.org/dc/elements/1.1/"
   xmlns:cc="http://creativecommons.org/ns#"
   xmlns:rdf="http://www.w3.org/1999/02/22-rdf-syntax-ns#"
   xmlns:svg="http://www.w3.org/2000/svg"
   xmlns="http://www.w3.org/2000/svg"
   id="svg8"
   version="1.1"
   viewBox="0 0 76.49633 27.648958"
   height="27.648958mm"
   width="76.49633mm">
  <defs
     id="defs2" />
  <metadata
     id="metadata5">
    <rdf:RDF>
      <cc:Work
         rdf:about="">
        <dc:format>image/svg+xml</dc:format>
        <dc:type
           rdf:resource="http://purl.org/dc/dcmitype/StillImage" />
        <dc:title></dc:title>
      </cc:Work>
    </rdf:RDF>
  </metadata>
  <g
     transform="translate(16.325547,-79.82433)"
     id="layer1">
    <g
       transform="matrix(0.26458333,0,0,0.26458333,-45.810713,25.915477)"
       id="g826"
       style="isolation:isolate;fill:#ff0000">
      <path
         style="fill:#ff0000;fill-rule:evenodd"
         d="m 124.44,269 v 0 0 0 0 0 0 c 0,-6.96 2.76,-13.64 7.68,-18.56 4.92,-4.92 11.61,-7.69 18.57,-7.69 6.95,0 13.64,2.77 18.56,7.69 4.92,4.92 7.69,11.6 7.69,18.56 0,6.96 -2.77,13.64 -7.69,18.56 -4.92,4.92 -11.61,7.69 -18.56,7.69 -6.96,0 -13.65,-2.77 -18.57,-7.69 -4.92,-4.92 -7.68,-11.6 -7.68,-18.56 z m 210.62,0 c 0,-6.96 2.77,-13.64 7.69,-18.56 4.92,-4.92 11.6,-7.69 18.56,-7.69 6.96,0 13.64,2.77 18.56,7.69 4.92,4.92 7.69,11.6 7.69,18.56 0,6.96 -2.77,13.64 -7.69,18.56 -4.92,4.92 -11.6,7.69 -18.56,7.69 -6.96,0 -13.64,-2.77 -18.56,-7.69 -4.92,-4.92 -7.69,-11.6 -7.69,-18.56 v 0 0 z m -135.12,0 c 0,-6.96 2.76,-13.64 7.68,-18.56 4.92,-4.92 11.61,-7.69 18.57,-7.69 6.95,0 13.64,2.77 18.56,7.69 4.92,4.92 7.69,11.6 7.69,18.56 v 0 c 0,6.96 -2.77,13.64 -7.69,18.56 -4.92,4.92 -11.61,7.69 -18.56,7.69 -6.96,0 -13.65,-2.77 -18.57,-7.69 -4.92,-4.92 -7.68,-11.6 -7.68,-18.56 v 0 z m 123.185,9.06 v 0 c 1.663,7.024 5.25,13.512 10.435,18.69 7.35,7.36 17.34,11.5 27.75,11.5 10.41,0 20.4,-4.14 27.75,-11.5 7.36,-7.35 11.5,-17.34 11.5,-27.75 0,-10.41 -4.14,-20.4 -11.5,-27.75 -7.35,-7.36 -17.34,-11.5 -27.75,-11.5 -10.41,0 -20.4,4.14 -27.75,11.5 -4.263,4.258 -7.446,9.401 -9.37,14.999 V 229.75 h -13 V 269 c 0,6.96 -2.77,13.64 -7.69,18.56 -4.92,4.92 -11.61,7.69 -18.56,7.69 h -6.5 v 13 h 6.5 c 10.4,0 20.39,-4.14 27.75,-11.5 5.185,-5.178 8.772,-11.666 10.435,-18.69 z m -211.683,-8.68 c 0.099,10.273 4.218,20.109 11.488,27.37 7.36,7.36 17.35,11.5 27.76,11.5 10.4,0 20.39,-4.14 27.75,-11.5 4.77,-4.763 8.187,-10.635 9.999,-17.013 v 0 c 1.808,6.378 5.221,12.25 9.991,17.013 7.36,7.36 17.35,11.5 27.76,11.5 9.71,0 19.062,-3.609 26.25,-10.077 v 0 0 10.077 h 13 V 269 v 0 0 c 0,-6.96 2.76,-13.64 7.68,-18.56 4.92,-4.92 11.61,-7.69 18.57,-7.69 h 6.5 v -13 h -6.5 c -10.41,0 -20.4,4.14 -27.76,11.5 -1.883,1.881 -3.555,3.935 -4.994,6.128 -1.44,-2.193 -3.113,-4.247 -4.996,-6.128 -7.36,-7.36 -17.35,-11.5 -27.75,-11.5 -10.41,0 -20.4,4.14 -27.76,11.5 -4.77,4.763 -8.183,10.635 -9.991,17.013 v 0 c -1.812,-6.378 -5.229,-12.25 -9.999,-17.013 -7.36,-7.36 -17.35,-11.5 -27.75,-11.5 -9.714,0 -19.063,3.605 -26.25,10.068 V 203.75 h -13 v 65.25 0 0.38 z M 311.19,203.75 h 13 v 13 h -13 z"
         id="path815" />
    </g>
  </g>
</svg>
