<?xml version="1.0" encoding="UTF-8" standalone="no"?>
<svg
   xmlns:dc="http://purl.org/dc/elements/1.1/"
   xmlns:cc="http://creativecommons.org/ns#"
   xmlns:rdf="http://www.w3.org/1999/02/22-rdf-syntax-ns#"
   xmlns:svg="http://www.w3.org/2000/svg"
   xmlns="http://www.w3.org/2000/svg"
   version="1.1"
   viewBox="0 0 66.145832 66.145835"
   height="250"
   width="250">
  <metadata
     id="metadata5">
    <rdf:RDF>
      <cc:Work
         rdf:about="">
        <dc:format>image/svg+xml</dc:format>
        <dc:type
           rdf:resource="http://purl.org/dc/dcmitype/StillImage" />
        <dc:title></dc:title>
      </cc:Work>
    </rdf:RDF>
  </metadata>
  <g
     transform="translate(0,-230.85415)"
     id="layer1">
    <path
       id="rect1372"
       transform="matrix(0.26458333,0,0,0.26458333,0,230.85415)"
       d="M 12.955078 0 C 9.6463697 0 6.3380379 1.2674308 3.8027344 3.8027344 C -1.2678727 8.8733415 -1.2678727 17.038768 3.8027344 22.109375 L 106.69336 125 L 3.8027344 227.89062 C -1.2678727 232.96123 -1.2678727 241.12666 3.8027344 246.19727 C 8.8733415 251.26787 17.038768 251.26787 22.109375 246.19727 L 125 143.30664 L 227.89062 246.19727 C 232.96123 251.26787 241.12666 251.26787 246.19727 246.19727 C 251.26787 241.12666 251.26787 232.96123 246.19727 227.89062 L 143.30664 125 L 246.19727 22.109375 C 251.26787 17.038768 251.26787 8.8733415 246.19727 3.8027344 C 241.12666 -1.2678727 232.96123 -1.2678727 227.89062 3.8027344 L 125 106.69336 L 22.109375 3.8027344 C 19.574071 1.2674308 16.263787 0 12.955078 0 z "
       style="fill:#000000;fill-opacity:1;stroke:none;stroke-width:31.15480042;stroke-linecap:square;stroke-linejoin:bevel;stroke-miterlimit:4;stroke-dasharray:none;stroke-opacity:1;paint-order:normal" />
  </g>
</svg>
