<?xml version="1.0" encoding="UTF-8" standalone="no"?>
<svg
   xmlns:dc="http://purl.org/dc/elements/1.1/"
   xmlns:cc="http://creativecommons.org/ns#"
   xmlns:rdf="http://www.w3.org/1999/02/22-rdf-syntax-ns#"
   xmlns:svg="http://www.w3.org/2000/svg"
   xmlns="http://www.w3.org/2000/svg"
   id="svg8"
   version="1.1"
   viewBox="0 0 94.127068 85.41555"
   height="85.41555mm"
   width="94.127068mm">
  <defs
     id="defs2" />
  <metadata
     id="metadata5">
    <rdf:RDF>
      <cc:Work
         rdf:about="">
        <dc:format>image/svg+xml</dc:format>
        <dc:type
           rdf:resource="http://purl.org/dc/dcmitype/StillImage" />
        <dc:title></dc:title>
      </cc:Work>
    </rdf:RDF>
  </metadata>
  <g
     transform="translate(-58.10653,-105.78265)"
     id="layer1">
    <g
       id="layer1-3"
       transform="matrix(0.75572763,0,0,1,-9.6105699,-131.08212)">
      <g
         transform="translate(-31.688874,58.537991)"
         id="g873">
        <g
           id="g926">
          <path
             style="fill:#000000;stroke:none;stroke-width:20.69078827;stroke-linecap:square;stroke-linejoin:bevel;stroke-miterlimit:4;stroke-dasharray:none;stroke-opacity:1;paint-order:normal"
             d="m 241.06445,539.80859 a 21.45071,21.450708 0 0 0 -21.44922,21.45118 21.45071,21.450708 0 0 0 21.44922,21.45117 21.45071,21.450708 0 0 0 1.58594,-0.0625 c 0.38815,0.0365 0.77842,0.0605 1.17383,0.0605 h 306.05273 c 0.43325,0 0.86068,-0.0285 1.28516,-0.0723 a 21.45071,21.450708 0 0 0 1.47461,0.0742 21.45071,21.450708 0 0 0 21.44922,-21.45117 21.45071,21.450708 0 0 0 -21.44922,-21.45118 21.45071,21.450708 0 0 0 -1.58594,0.0625 c -0.38815,-0.0365 -0.77842,-0.0605 -1.17383,-0.0605 H 243.82422 c -0.43325,0 -0.86068,0.0285 -1.28516,0.0723 a 21.45071,21.450708 0 0 0 -1.47461,-0.0742 z"
             transform="matrix(0.35010409,0,0,0.26458333,44.40585,72.544129)"
             id="rect823-6" />
          <path
             style="fill:#000000;stroke:none;stroke-width:6.2973361;stroke-linecap:square;stroke-linejoin:bevel;stroke-miterlimit:4;stroke-dasharray:none;stroke-opacity:1;paint-order:normal"
             d="m 128.8035,178.32678 a 7.5099813,5.6754998 0 0 0 -7.50946,5.67562 7.5099813,5.6754998 0 0 0 7.50946,5.67562 7.5099813,5.6754998 0 0 0 0.55525,-0.0165 c 0.13589,0.01 0.27253,0.016 0.41096,0.016 h 107.15031 c 0.15168,0 0.30133,-0.007 0.44994,-0.0191 a 7.5099813,5.6754998 0 0 0 0.51627,0.0196 7.5099813,5.6754998 0 0 0 7.50945,-5.67562 7.5099813,5.6754998 0 0 0 -7.50945,-5.67562 7.5099813,5.6754998 0 0 0 -0.55525,0.0165 c -0.13589,-0.01 -0.27253,-0.016 -0.41096,-0.016 H 129.76971 c -0.15168,0 -0.30133,0.008 -0.44994,0.0191 a 7.5099813,5.6754998 0 0 0 -0.51627,-0.0196 z"
             id="rect823-6-1" />
          <path
             style="fill:#000000;stroke:none;stroke-width:6.2973361;stroke-linecap:square;stroke-linejoin:bevel;stroke-miterlimit:4;stroke-dasharray:none;stroke-opacity:1;paint-order:normal"
             d="m 129.25344,252.39109 a 7.5099813,5.6754998 0 0 0 -7.50946,5.67562 7.5099813,5.6754998 0 0 0 7.50946,5.67562 7.5099813,5.6754998 0 0 0 0.55525,-0.0165 c 0.13589,0.01 0.27253,0.016 0.41096,0.016 h 107.15031 c 0.15168,0 0.30133,-0.007 0.44994,-0.0191 a 7.5099813,5.6754998 0 0 0 0.51627,0.0196 7.5099813,5.6754998 0 0 0 7.50945,-5.67562 7.5099813,5.6754998 0 0 0 -7.50945,-5.67562 7.5099813,5.6754998 0 0 0 -0.55525,0.0165 c -0.13589,-0.01 -0.27253,-0.016 -0.41096,-0.016 H 130.21965 c -0.15168,0 -0.30133,0.008 -0.44994,0.0191 a 7.5099813,5.6754998 0 0 0 -0.51627,-0.0196 z"
             id="rect823-6-1-2" />
        </g>
      </g>
    </g>
  </g>
</svg>
