<?xml version="1.0" encoding="UTF-8" standalone="no"?>
<!-- Created with Inkscape (http://www.inkscape.org/) -->

<svg
   xmlns:dc="http://purl.org/dc/elements/1.1/"
   xmlns:cc="http://creativecommons.org/ns#"
   xmlns:rdf="http://www.w3.org/1999/02/22-rdf-syntax-ns#"
   xmlns:svg="http://www.w3.org/2000/svg"
   xmlns="http://www.w3.org/2000/svg"
   xmlns:sodipodi="http://sodipodi.sourceforge.net/DTD/sodipodi-0.dtd"
   xmlns:inkscape="http://www.inkscape.org/namespaces/inkscape"
   width="512"
   height="512"
   viewBox="0 0 135.46666 135.46667"
   version="1.1"
   id="svg8"
   inkscape:version="0.92.4 (33fec40, 2019-01-16)"
   sodipodi:docname="menu.svg">
  <defs
     id="defs2" />
  <sodipodi:namedview
     id="base"
     pagecolor="#ffffff"
     bordercolor="#666666"
     borderopacity="1.0"
     inkscape:pageopacity="0.0"
     inkscape:pageshadow="2"
     inkscape:zoom="0.35"
     inkscape:cx="788.35847"
     inkscape:cy="348.45774"
     inkscape:document-units="px"
     inkscape:current-layer="layer1"
     showgrid="false"
     units="px"
     inkscape:window-width="1920"
     inkscape:window-height="1006"
     inkscape:window-x="0"
     inkscape:window-y="0"
     inkscape:window-maximized="1" />
  <metadata
     id="metadata5">
    <rdf:RDF>
      <cc:Work
         rdf:about="">
        <dc:format>image/svg+xml</dc:format>
        <dc:type
           rdf:resource="http://purl.org/dc/dcmitype/StillImage" />
        <dc:title></dc:title>
      </cc:Work>
    </rdf:RDF>
  </metadata>
  <g
     inkscape:label="Layer 1"
     inkscape:groupmode="layer"
     id="layer1"
     transform="translate(0,-161.53331)">
    <path
       style="fill:#000000;fill-opacity:1;stroke:none;stroke-width:4.23333311;stroke-miterlimit:4;stroke-dasharray:none;stroke-opacity:1"
       d="m 14.814084,186.34523 c -3.257481,0 -5.8802611,2.62227 -5.8802611,5.87975 0,3.25748 2.6227801,5.87974 5.8802611,5.87974 H 120.65258 c 3.25748,0 5.88026,-2.62226 5.88026,-5.87974 0,-3.25748 -2.62278,-5.87975 -5.88026,-5.87975 z m 0,37.04167 c -3.257481,0 -5.8802611,2.62226 -5.8802611,5.87974 0,3.25748 2.6227801,5.87975 5.8802611,5.87975 H 120.65258 c 3.25748,0 5.88026,-2.62227 5.88026,-5.87975 0,-3.25748 -2.62278,-5.87974 -5.88026,-5.87974 z m 0,37.04166 c -3.257481,0 -5.8802611,2.62227 -5.8802611,5.87975 0,3.25748 2.6227801,5.87974 5.8802611,5.87974 H 120.65258 c 3.25748,0 5.88026,-2.62226 5.88026,-5.87974 0,-3.25748 -2.62278,-5.87975 -5.88026,-5.87975 z"
       id="rect1366"
       inkscape:connector-curvature="0" />
  </g>
</svg>
